<svg width="1729" height="2579" viewBox="0 0 1729 2579" fill="none" xmlns="http://www.w3.org/2000/svg">
<rect width="1728.24" height="2579" fill="#FAFFFD" fill-opacity="0.996078"/>
<path d="M275.718 193.319C275.718 193.319 240.787 198.152 221.652 207.707C185.437 225.79 122.728 268.007 160.152 283.581C192.702 297.126 220.909 269.584 215.868 246.724C210.043 220.31 155.037 247.49 124.142 264.684C95.9319 280.384 81.9666 301.617 81.9666 301.617" stroke="#05B084" stroke-width="6" stroke-linecap="round"/>
<path d="M108.222 963.908C108.222 963.908 119.499 934.876 142.923 934.876C166.347 934.876 178.315 963.908 201.739 963.908C225.163 963.908 237.131 934.876 260.555 934.876C283.979 934.876 295.947 963.908 319.371 963.908C342.795 963.908 339.368 934.876 378.187 934.876C417.005 934.876 449.354 953.212 449.354 953.212" stroke="#05B084" stroke-width="4" stroke-linecap="round"/>
<path d="M1282.69 1536.42C1282.69 1536.42 1293.96 1459 1317.39 1459C1340.81 1459 1352.78 1536.42 1376.2 1536.42C1399.63 1536.42 1411.6 1459 1435.02 1459C1458.44 1459 1470.41 1536.42 1493.84 1536.42C1517.26 1536.42 1513.83 1459 1552.65 1459C1591.47 1459 1623.82 1507.9 1623.82 1507.9" stroke="#05B084" stroke-width="4" stroke-linecap="round"/>
<rect width="177.329" height="155.629" transform="matrix(0.970368 0.241632 -0.315133 0.949048 1281.68 1032)" fill="white"/>
<path fill-rule="evenodd" clip-rule="evenodd" d="M1316.56 1175.92L1319.68 1174.43C1323.85 1172.46 1328.77 1171.99 1333.36 1173.13V1173.13C1337.95 1174.27 1341.84 1176.94 1344.16 1180.53L1345.9 1183.22C1349.03 1188.07 1354.27 1191.66 1360.46 1193.2L1363.28 1193.91C1376.18 1197.12 1389.61 1190.75 1393.29 1179.68V1179.68C1395.52 1172.98 1393.69 1165.75 1388.43 1160.41V1160.41C1382.51 1154.41 1378.27 1147.32 1376.04 1139.7L1372.7 1128.26C1370.36 1120.28 1363.26 1113.94 1354.05 1111.65V1111.65C1345 1109.4 1335.25 1111.39 1328.38 1116.89L1317.49 1125.61C1311.07 1130.76 1303.38 1134.61 1295 1136.89L1294.51 1137.02C1286.78 1139.12 1280.8 1144.41 1278.57 1151.11V1151.11C1274.9 1162.18 1282.37 1173.76 1295.27 1176.97L1298.09 1177.67C1304.29 1179.22 1310.93 1178.58 1316.56 1175.92V1175.92Z" fill="#05B084" fill-opacity="0.2"/>
<ellipse cx="17.7255" cy="15.5564" rx="17.7255" ry="15.5564" transform="matrix(0.970368 0.241632 -0.315133 0.949048 1286.84 1086.59)" fill="#05B084" fill-opacity="0.2"/>
<ellipse cx="17.7255" cy="15.5564" rx="17.7255" ry="15.5564" transform="matrix(0.970368 0.241632 -0.315133 0.949048 1394.39 1113.37)" fill="#05B084" fill-opacity="0.2"/>
<ellipse cx="17.7255" cy="15.5564" rx="17.7255" ry="15.5564" transform="matrix(0.970368 0.241632 -0.315133 0.949048 1327.79 1063.47)" fill="#05B084" fill-opacity="0.2"/>
<ellipse cx="17.7255" cy="15.5564" rx="17.7255" ry="15.5564" transform="matrix(0.970368 0.241632 -0.315133 0.949048 1373.89 1074.95)" fill="#05B084" fill-opacity="0.2"/>
<path d="M1663.84 905.452C1663.84 905.452 1639.69 882.456 1619.73 874.243C1581.96 858.698 1505.93 838.703 1511.58 876.51C1516.5 909.394 1559.03 912.96 1578.5 894.69C1600.99 873.58 1543.9 849.788 1509.95 837.648C1478.95 826.564 1450.5 829.62 1450.5 829.62" stroke="#05B084" stroke-width="6" stroke-linecap="round"/>
<rect width="259.016" height="248.287" transform="matrix(0.999975 0.00702333 -0.00936531 0.999956 58.3252 1334)" fill="#FAFFFD" fill-opacity="0.996078"/>
<path fill-rule="evenodd" clip-rule="evenodd" d="M171.284 1544.76L174.975 1541.28C179.905 1536.63 186.557 1534.05 193.466 1534.1V1534.1C200.376 1534.15 206.979 1536.82 211.821 1541.54L215.447 1545.07C221.979 1551.44 230.886 1555.05 240.208 1555.12L244.46 1555.15C263.872 1555.28 279.75 1540.31 279.925 1521.7V1521.7C280.03 1510.44 274.255 1499.87 264.535 1493.56V1493.56C253.6 1486.45 244.523 1477.02 238.009 1466L228.235 1449.47C221.409 1437.92 208.673 1430.75 194.818 1430.65V1430.65C181.19 1430.56 168.497 1437.32 161.38 1448.47L150.101 1466.15C143.444 1476.58 134.455 1485.47 123.785 1492.18L123.166 1492.56C113.329 1498.74 107.357 1509.22 107.252 1520.49V1520.49C107.077 1539.1 122.673 1554.29 142.085 1554.43L146.337 1554.46C155.659 1554.52 164.633 1551.04 171.284 1544.76V1544.76Z" fill="#05B084" fill-opacity="0.2"/>
<ellipse cx="25.8908" cy="24.8183" rx="25.8908" ry="24.8183" transform="matrix(0.999975 0.00702333 -0.00936531 0.999956 89.9277 1416.98)" fill="#05B084" fill-opacity="0.2"/>
<ellipse cx="25.8908" cy="24.8183" rx="25.8908" ry="24.8183" transform="matrix(0.999975 0.00702333 -0.00936531 0.999956 251.805 1418.12)" fill="#05B084" fill-opacity="0.2"/>
<ellipse cx="25.8908" cy="24.8183" rx="25.8908" ry="24.8183" transform="matrix(0.999975 0.00702333 -0.00936531 0.999956 136.666 1365.59)" fill="#05B084" fill-opacity="0.2"/>
<ellipse cx="25.8908" cy="24.8183" rx="25.8908" ry="24.8183" transform="matrix(0.999975 0.00702333 -0.00936531 0.999956 206.052 1366.07)" fill="#05B084" fill-opacity="0.2"/>
<path d="M132.108 1897.45C132.108 1897.45 143.947 1930.67 157.195 1947.46C182.269 1979.24 236.362 2032.04 243.996 1992.23C250.635 1957.61 217.93 1935.59 196.573 1945.18C171.898 1956.26 209.7 2004.58 232.821 2031.33C253.932 2055.76 277.563 2065.11 277.563 2065.11" stroke="#05B084" stroke-width="6" stroke-linecap="round"/>
<path d="M662.268 2054.9C662.268 2054.9 673.545 2025.87 696.969 2025.87C720.393 2025.87 732.361 2054.9 755.785 2054.9C779.209 2054.9 791.177 2025.87 814.601 2025.87C838.025 2025.87 849.993 2054.9 873.417 2054.9C896.841 2054.9 893.414 2025.87 932.233 2025.87C971.051 2025.87 1003.4 2044.2 1003.4 2044.2" stroke="#05B084" stroke-width="4" stroke-linecap="round"/>
<path fill-rule="evenodd" clip-rule="evenodd" d="M1513.22 2030.7L1515.83 2025.91C1519.31 2019.52 1525.58 2014.58 1533.26 2012.2V2012.2C1540.94 2009.81 1549.41 2010.16 1556.79 2013.17L1562.32 2015.43C1572.28 2019.5 1583.7 2019.97 1594.06 2016.75L1598.79 2015.28C1620.37 2008.57 1631.59 1987.98 1623.84 1969.29V1969.29C1619.14 1957.97 1608.23 1949.44 1594.76 1946.54V1946.54C1579.6 1943.28 1565.51 1937.04 1553.58 1928.31L1535.69 1915.21C1523.19 1906.05 1506.01 1903.37 1490.6 1908.16V1908.16C1475.45 1912.87 1464.26 1924.12 1461.13 1937.8L1456.17 1959.47C1453.25 1972.26 1447.07 1984.33 1438.1 1994.81L1437.58 1995.42C1429.31 2005.07 1427.17 2017.67 1431.86 2028.98V2028.98C1439.61 2047.67 1463.39 2057.39 1484.97 2050.67L1489.7 2049.2C1500.06 2045.98 1508.52 2039.32 1513.22 2030.7V2030.7Z" fill="#05B084" fill-opacity="0.2"/>
<ellipse cx="30.1443" cy="26.985" rx="30.1443" ry="26.985" transform="matrix(0.954897 -0.296938 0.383039 0.923732 1368.46 1931.47)" fill="#05B084" fill-opacity="0.2"/>
<ellipse cx="30.1443" cy="26.985" rx="30.1443" ry="26.985" transform="matrix(0.954897 -0.296938 0.383039 0.923732 1548.44 1875.51)" fill="#05B084" fill-opacity="0.2"/>
<ellipse cx="30.1443" cy="26.985" rx="30.1443" ry="26.985" transform="matrix(0.954897 -0.296938 0.383039 0.923732 1398.35 1863.53)" fill="#05B084" fill-opacity="0.2"/>
<ellipse cx="30.1443" cy="26.985" rx="30.1443" ry="26.985" transform="matrix(0.954897 -0.296938 0.383039 0.923732 1475.49 1839.54)" fill="#05B084" fill-opacity="0.2"/>
<path d="M148.067 2266.57C148.067 2266.57 234.316 2197.89 258.235 2215.28C282.154 2232.68 219.641 2318.62 243.56 2336.02C267.479 2353.42 354.433 2285.25 378.352 2302.64C402.271 2320.04 339.758 2405.99 363.677 2423.38C387.596 2440.78 458.831 2361.18 498.469 2390.01C538.108 2418.84 523.94 2491.53 523.94 2491.53" stroke="#05B084" stroke-width="4" stroke-linecap="round"/>
<rect width="177.329" height="155.629" transform="matrix(0.970368 0.241632 -0.315133 0.949048 832.473 2278.49)" fill="white"/>
<path fill-rule="evenodd" clip-rule="evenodd" d="M867.349 2422.41L870.472 2420.93C874.644 2418.95 879.566 2418.48 884.157 2419.62V2419.62C888.747 2420.77 892.63 2423.43 894.951 2427.02L896.689 2429.72C899.82 2434.57 905.058 2438.16 911.251 2439.7L914.076 2440.4C926.973 2443.61 940.408 2437.24 944.083 2426.17V2426.17C946.309 2419.47 944.485 2412.24 939.223 2406.91V2406.91C933.302 2400.9 929.064 2393.82 926.835 2386.19L923.492 2374.76C921.157 2366.77 914.05 2360.44 904.846 2358.15V2358.15C895.792 2355.89 886.048 2357.88 879.177 2363.38L868.287 2372.11C861.859 2377.26 854.175 2381.11 845.79 2383.39L845.303 2383.52C837.573 2385.62 831.592 2390.91 829.367 2397.61V2397.61C825.691 2408.68 833.166 2420.25 846.063 2423.47L848.888 2424.17C855.081 2425.71 861.722 2425.08 867.349 2422.41V2422.41Z" fill="#05B084" fill-opacity="0.2"/>
<ellipse cx="17.7255" cy="15.5564" rx="17.7255" ry="15.5564" transform="matrix(0.970368 0.241632 -0.315133 0.949048 837.636 2333.08)" fill="#05B084" fill-opacity="0.2"/>
<ellipse cx="17.7255" cy="15.5564" rx="17.7255" ry="15.5564" transform="matrix(0.970368 0.241632 -0.315133 0.949048 945.18 2359.86)" fill="#05B084" fill-opacity="0.2"/>
<ellipse cx="17.7255" cy="15.5564" rx="17.7255" ry="15.5564" transform="matrix(0.970368 0.241632 -0.315133 0.949048 878.581 2309.96)" fill="#05B084" fill-opacity="0.2"/>
<ellipse cx="17.7255" cy="15.5564" rx="17.7255" ry="15.5564" transform="matrix(0.970368 0.241632 -0.315133 0.949048 924.68 2321.44)" fill="#05B084" fill-opacity="0.2"/>
<path d="M1581.29 2353.59C1581.29 2353.59 1556.71 2331.56 1536.7 2323.45C1498.85 2308.1 1422.97 2287.76 1429.66 2323.24C1435.47 2354.11 1477.7 2358.36 1496.45 2341.69C1518.12 2322.43 1460.89 2298.94 1426.92 2286.86C1395.91 2275.82 1367.81 2278.07 1367.81 2278.07" stroke="#05B084" stroke-width="6" stroke-linecap="round"/>
<path d="M1298.02 166.171C1298.02 166.171 1349.87 128.84 1369.96 144.577C1390.05 160.315 1358.14 213.264 1378.24 229.001C1398.33 244.739 1450.77 207.872 1470.86 223.61C1490.95 239.347 1459.04 292.296 1479.13 308.034C1499.23 323.771 1538.46 276.561 1571.76 302.642C1605.06 328.723 1606.17 378.82 1606.17 378.82" stroke="#05B084" stroke-width="4" stroke-linecap="round"/>
<rect width="247.031" height="242.224" transform="matrix(0.954897 -0.296938 0.383039 0.923732 704.644 725.353)" fill="#FAFFFD" fill-opacity="0.996078"/>
<path fill-rule="evenodd" clip-rule="evenodd" d="M888.244 889.762L890.265 885.565C892.965 879.961 898.017 875.713 904.31 873.756V873.756C910.603 871.799 917.622 872.293 923.822 875.131L928.465 877.255C936.829 881.082 946.298 881.749 954.788 879.109L958.66 877.905C976.34 872.407 985.034 854.356 978.081 837.587V837.587C973.871 827.434 964.59 819.617 953.35 816.755V816.755C940.703 813.534 928.857 807.69 918.73 799.675L903.535 787.649C892.924 779.251 878.618 776.494 866 780.418V780.418C853.588 784.278 844.648 794.031 842.448 806.112L838.962 825.26C836.904 836.561 832.14 847.15 825.013 856.263L824.6 856.791C818.029 865.192 816.611 876.336 820.821 886.488V886.488C827.775 903.258 847.744 912.396 865.424 906.898L869.296 905.694C877.786 903.054 884.602 897.323 888.244 889.762V889.762Z" fill="#05B084" fill-opacity="0.2"/>
<ellipse cx="24.6928" cy="24.2123" rx="24.6928" ry="24.2123" transform="matrix(0.954897 -0.296938 0.383039 0.923732 765.057 790.761)" fill="#05B084" fill-opacity="0.2"/>
<ellipse cx="24.6928" cy="24.2123" rx="24.6928" ry="24.2123" transform="matrix(0.954897 -0.296938 0.383039 0.923732 912.482 744.916)" fill="#05B084" fill-opacity="0.2"/>
<ellipse cx="24.6928" cy="24.2123" rx="24.6928" ry="24.2123" transform="matrix(0.954897 -0.296938 0.383039 0.923732 787.854 731.052)" fill="#05B084" fill-opacity="0.2"/>
<ellipse cx="24.6928" cy="24.2123" rx="24.6928" ry="24.2123" transform="matrix(0.954897 -0.296938 0.383039 0.923732 851.046 711.4)" fill="#05B084" fill-opacity="0.2"/>
</svg>
