<svg width="1481" height="2411" viewBox="0 0 1481 2411" fill="none" xmlns="http://www.w3.org/2000/svg">
<rect width="1469" height="2411" fill="#FAFFFD" fill-opacity="0.996078"/>
<path d="M181.632 120.093C181.632 120.093 151.937 124.837 135.67 134.217C104.883 151.969 51.5738 193.412 83.3882 208.701C111.059 221.998 135.038 194.961 130.753 172.519C125.801 146.59 79.0399 173.271 52.7756 190.15C28.794 205.562 16.9219 226.406 16.9219 226.406" stroke="#05B084" stroke-width="6" stroke-linecap="round"/>
<path d="M92 825.5C92 825.5 101.587 797 121.5 797C141.413 797 151.587 825.5 171.5 825.5C191.413 825.5 201.587 797 221.5 797C241.413 797 251.587 825.5 271.5 825.5C291.413 825.5 288.5 797 321.5 797C354.5 797 382 815 382 815" stroke="#05B084" stroke-width="4" stroke-linecap="round"/>
<path d="M1073 1381C1073 1381 1082.59 1305 1102.5 1305C1122.41 1305 1132.59 1381 1152.5 1381C1172.41 1381 1182.59 1305 1202.5 1305C1222.41 1305 1232.59 1381 1252.5 1381C1272.41 1381 1269.5 1305 1302.5 1305C1335.5 1305 1363 1353 1363 1353" stroke="#05B084" stroke-width="4" stroke-linecap="round"/>
<rect x="1041.69" y="904" width="152.21" height="150.868" transform="rotate(16.0426 1041.69 904)" fill="white"/>
<path fill-rule="evenodd" clip-rule="evenodd" d="M1071.34 1045.28L1074 1043.82C1077.54 1041.88 1081.73 1041.42 1085.63 1042.55V1042.55C1089.53 1043.67 1092.83 1046.28 1094.81 1049.81L1096.28 1052.45C1098.94 1057.21 1103.4 1060.74 1108.66 1062.25L1111.06 1062.94C1122.03 1066.09 1133.45 1059.84 1136.57 1048.97V1048.97C1138.47 1042.39 1136.91 1035.3 1132.44 1030.06V1030.06C1127.41 1024.17 1123.81 1017.21 1121.91 1009.73L1119.07 998.499C1117.08 990.658 1111.04 984.444 1103.22 982.194V982.194C1095.52 979.98 1087.24 981.932 1081.4 987.335L1072.14 995.899C1066.67 1000.95 1060.14 1004.73 1053.01 1006.97L1052.6 1007.1C1046.03 1009.16 1040.94 1014.35 1039.05 1020.93V1020.93C1035.93 1031.8 1042.28 1043.16 1053.25 1046.32L1055.65 1047.01C1060.91 1048.52 1066.56 1047.9 1071.34 1045.28V1045.28Z" fill="#05B084" fill-opacity="0.2"/>
<ellipse cx="1056.54" cy="976.284" rx="15.2146" ry="15.0805" transform="rotate(16.0426 1056.54 976.284)" fill="#05B084" fill-opacity="0.2"/>
<ellipse cx="1147.96" cy="1002.57" rx="15.2146" ry="15.0805" transform="rotate(16.0426 1147.96 1002.57)" fill="#05B084" fill-opacity="0.2"/>
<ellipse cx="1091.34" cy="953.59" rx="15.2146" ry="15.0805" transform="rotate(16.0426 1091.34 953.59)" fill="#05B084" fill-opacity="0.2"/>
<ellipse cx="1130.53" cy="964.859" rx="15.2146" ry="15.0805" transform="rotate(16.0426 1130.53 964.859)" fill="#05B084" fill-opacity="0.2"/>
<path d="M1414.44 768.116C1414.44 768.116 1393.91 745.541 1376.95 737.478C1344.84 722.219 1280.2 702.589 1285.01 739.704C1289.19 771.986 1325.35 775.487 1341.9 757.551C1361.02 736.828 1312.48 713.472 1283.62 701.555C1257.27 690.673 1233.08 693.673 1233.08 693.673" stroke="#05B084" stroke-width="6" stroke-linecap="round"/>
<rect x="94.7607" y="1133" width="353.282" height="340.421" transform="rotate(0.464687 94.7607 1133)" fill="#FAFFFD" fill-opacity="0.996078"/>
<path fill-rule="evenodd" clip-rule="evenodd" d="M249.174 1422.14L254.203 1417.37C260.92 1411.01 269.987 1407.47 279.412 1407.55V1407.55C288.837 1407.63 297.846 1411.31 304.459 1417.78L309.41 1422.63C318.33 1431.37 330.484 1436.33 343.198 1436.44L348.998 1436.48C375.475 1436.7 397.106 1416.19 397.313 1390.68V1390.68C397.439 1375.23 389.545 1360.74 376.277 1352.07V1352.07C361.35 1342.3 348.954 1329.36 340.051 1314.25L326.693 1291.56C317.365 1275.72 299.981 1265.87 281.085 1265.72V1265.72C262.497 1265.57 245.195 1274.82 235.507 1290.1L220.152 1314.32C211.09 1328.62 198.846 1340.79 184.303 1349.97L183.46 1350.5C170.053 1358.96 161.925 1373.32 161.8 1388.77V1388.77C161.593 1414.28 182.889 1435.14 209.366 1435.35L215.166 1435.4C227.88 1435.5 240.113 1430.73 249.174 1422.14V1422.14Z" fill="#05B084" fill-opacity="0.2"/>
<ellipse cx="173.038" cy="1281.13" rx="35.3135" ry="34.028" transform="rotate(0.464687 173.038 1281.13)" fill="#05B084" fill-opacity="0.2"/>
<ellipse cx="393.826" cy="1282.92" rx="35.3135" ry="34.028" transform="rotate(0.464687 393.826 1282.92)" fill="#05B084" fill-opacity="0.2"/>
<ellipse cx="236.699" cy="1210.73" rx="35.3135" ry="34.028" transform="rotate(0.464687 236.699 1210.73)" fill="#05B084" fill-opacity="0.2"/>
<ellipse cx="331.336" cy="1211.5" rx="35.3135" ry="34.028" transform="rotate(0.464687 331.336 1211.5)" fill="#05B084" fill-opacity="0.2"/>
<path d="M326.632 1559.09C326.632 1559.09 296.937 1563.84 280.67 1573.22C249.883 1590.97 196.574 1632.41 228.388 1647.7C256.059 1661 280.038 1633.96 275.753 1611.52C270.801 1585.59 224.04 1612.27 197.776 1629.15C173.794 1644.56 161.922 1665.41 161.922 1665.41" stroke="#05B084" stroke-width="6" stroke-linecap="round"/>
<path d="M563 1896.5C563 1896.5 572.587 1868 592.5 1868C612.413 1868 622.587 1896.5 642.5 1896.5C662.413 1896.5 672.587 1868 692.5 1868C712.413 1868 722.587 1896.5 742.5 1896.5C762.413 1896.5 759.5 1868 792.5 1868C825.5 1868 853 1886 853 1886" stroke="#05B084" stroke-width="4" stroke-linecap="round"/>
<path fill-rule="evenodd" clip-rule="evenodd" d="M1054.96 1753.92L1057.18 1749.22C1060.14 1742.95 1065.47 1738.1 1072 1735.76V1735.76C1078.53 1733.41 1085.72 1733.76 1092 1736.72L1096.7 1738.93C1105.17 1742.93 1114.87 1743.39 1123.69 1740.23L1127.7 1738.79C1146.05 1732.2 1155.58 1711.98 1149 1693.63V1693.63C1145.01 1682.53 1135.73 1674.15 1124.28 1671.31V1671.31C1111.39 1668.11 1099.41 1661.98 1089.27 1653.41L1074.06 1640.55C1063.44 1631.56 1048.83 1628.92 1035.73 1633.63V1633.63C1022.85 1638.25 1013.34 1649.3 1010.68 1662.72L1006.46 1684C1003.97 1696.56 998.728 1708.41 991.103 1718.69L990.661 1719.29C983.631 1728.77 981.805 1741.13 985.793 1752.24V1752.24C992.382 1770.59 1012.6 1780.12 1030.94 1773.53L1034.96 1772.09C1043.77 1768.92 1050.97 1762.39 1054.96 1753.92V1753.92Z" fill="#05B084" fill-opacity="0.2"/>
<circle cx="965.159" cy="1672.2" r="26" transform="rotate(-19.7527 965.159 1672.2)" fill="#05B084" fill-opacity="0.2"/>
<circle cx="1118.16" cy="1617.26" r="26" transform="rotate(-19.7527 1118.16 1617.26)" fill="#05B084" fill-opacity="0.2"/>
<circle cx="990.564" cy="1605.5" r="26" transform="rotate(-19.7527 990.564 1605.5)" fill="#05B084" fill-opacity="0.2"/>
<circle cx="1056.14" cy="1581.95" r="26" transform="rotate(-19.7527 1056.14 1581.95)" fill="#05B084" fill-opacity="0.2"/>
<path d="M125.873 2104.29C125.873 2104.29 199.195 2036.87 219.528 2053.95C239.862 2071.02 186.719 2155.39 207.053 2172.47C227.387 2189.55 301.307 2122.63 321.641 2139.71C341.975 2156.79 288.832 2241.16 309.166 2258.23C329.499 2275.31 390.057 2197.17 423.754 2225.47C457.451 2253.77 445.406 2325.13 445.406 2325.13" stroke="#05B084" stroke-width="4" stroke-linecap="round"/>
<rect x="707.692" y="2116" width="152.21" height="150.868" transform="rotate(16.0426 707.692 2116)" fill="white"/>
<path fill-rule="evenodd" clip-rule="evenodd" d="M737.341 2257.28L739.996 2255.82C743.542 2253.88 747.727 2253.42 751.629 2254.55V2254.55C755.532 2255.67 758.833 2258.28 760.806 2261.81L762.283 2264.45C764.945 2269.21 769.398 2272.74 774.663 2274.25L777.064 2274.94C788.028 2278.09 799.449 2271.84 802.573 2260.97V2260.97C804.465 2254.39 802.914 2247.3 798.441 2242.06V2242.06C793.408 2236.17 789.805 2229.21 787.911 2221.73L785.068 2210.5C783.083 2202.66 777.042 2196.44 769.217 2194.19V2194.19C761.52 2191.98 753.237 2193.93 747.396 2199.34L738.138 2207.9C732.674 2212.95 726.142 2216.73 719.013 2218.97L718.599 2219.1C712.027 2221.16 706.944 2226.35 705.052 2232.93V2232.93C701.927 2243.8 708.282 2255.16 719.245 2258.32L721.647 2259.01C726.912 2260.52 732.557 2259.9 737.341 2257.28V2257.28Z" fill="#05B084" fill-opacity="0.2"/>
<ellipse cx="722.537" cy="2188.28" rx="15.2146" ry="15.0805" transform="rotate(16.0426 722.537 2188.28)" fill="#05B084" fill-opacity="0.2"/>
<ellipse cx="813.96" cy="2214.57" rx="15.2146" ry="15.0805" transform="rotate(16.0426 813.96 2214.57)" fill="#05B084" fill-opacity="0.2"/>
<ellipse cx="757.344" cy="2165.59" rx="15.2146" ry="15.0805" transform="rotate(16.0426 757.344 2165.59)" fill="#05B084" fill-opacity="0.2"/>
<ellipse cx="796.533" cy="2176.86" rx="15.2146" ry="15.0805" transform="rotate(16.0426 796.533 2176.86)" fill="#05B084" fill-opacity="0.2"/>
<path d="M1322.44 2184.03C1322.44 2184.03 1301.55 2162.4 1284.54 2154.43C1252.36 2139.36 1187.85 2119.39 1193.54 2154.23C1198.49 2184.53 1234.38 2188.7 1250.33 2172.34C1268.75 2153.43 1220.09 2130.38 1191.22 2118.51C1164.85 2107.68 1140.96 2109.88 1140.96 2109.88" stroke="#05B084" stroke-width="6" stroke-linecap="round"/>
<path d="M1158 153.098C1158 153.098 1187.57 100.488 1208.34 107.733C1229.11 114.978 1220.15 174.778 1240.92 182.023C1261.69 189.268 1291.87 136.872 1312.64 144.117C1333.41 151.362 1324.45 211.162 1345.22 218.407C1365.99 225.652 1382.52 168.493 1416.94 180.5C1451.36 192.506 1467.68 237.943 1467.68 237.943" stroke="#05B084" stroke-width="4" stroke-linecap="round"/>
<rect x="568" y="579.906" width="260.108" height="260.108" transform="rotate(-19.7527 568 579.906)" fill="#FAFFFD" fill-opacity="0.996078"/>
<path fill-rule="evenodd" clip-rule="evenodd" d="M751.19 756.468L753.406 751.769C756.366 745.492 761.698 740.649 768.229 738.304V738.304C774.76 735.959 781.955 736.304 788.232 739.264L792.931 741.48C801.398 745.473 811.105 745.938 819.916 742.774L823.934 741.331C842.282 734.743 851.815 714.528 845.226 696.181V696.181C841.238 685.073 831.962 676.694 820.507 673.851V673.851C807.62 670.653 795.642 664.529 785.503 655.955L770.29 643.091C759.666 634.107 745.058 631.47 731.963 636.172V636.172C719.082 640.798 709.573 651.842 706.912 665.267L702.694 686.545C700.205 699.103 694.959 710.951 687.334 721.235L686.891 721.831C679.862 731.311 678.035 743.677 682.024 754.785V754.785C688.612 773.133 708.827 782.665 727.175 776.077L731.193 774.634C740.004 771.47 747.197 764.936 751.19 756.468V756.468Z" fill="#05B084" fill-opacity="0.2"/>
<circle cx="661.159" cy="666.196" r="26" transform="rotate(-19.7527 661.159 666.196)" fill="#05B084" fill-opacity="0.2"/>
<circle cx="814.158" cy="611.256" r="26" transform="rotate(-19.7527 814.158 611.256)" fill="#05B084" fill-opacity="0.2"/>
<circle cx="686.564" cy="599.502" r="26" transform="rotate(-19.7527 686.564 599.502)" fill="#05B084" fill-opacity="0.2"/>
<circle cx="752.144" cy="575.952" r="26" transform="rotate(-19.7527 752.144 575.952)" fill="#05B084" fill-opacity="0.2"/>
</svg>
