<svg width="1469" height="1320" viewBox="0 0 1469 1320" fill="none" xmlns="http://www.w3.org/2000/svg">
<rect width="1469" height="1320" fill="#FAFFFD" fill-opacity="0.996078"/>
<path d="M1146.47 167.554C1146.47 167.554 1188.21 104.819 1206.06 113.651C1223.9 122.483 1199.87 193.981 1217.72 202.813C1235.57 211.645 1277.83 149.171 1295.68 158.002C1313.53 166.834 1289.5 238.333 1307.35 247.164C1325.19 255.996 1355.73 187.718 1385.31 202.353C1414.89 216.989 1418.6 271.493 1418.6 271.493" stroke="#05B084" stroke-width="4" stroke-linecap="round"/>
<rect width="268.356" height="255.665" transform="matrix(0.999968 0.00797569 -0.00824705 0.999966 23.1084 109)" fill="#FAFFFD" fill-opacity="0.996078"/>
<path fill-rule="evenodd" clip-rule="evenodd" d="M140.393 326.149L144.214 322.568C149.316 317.786 156.204 315.131 163.363 315.188V315.188C170.522 315.245 177.366 318.01 182.388 322.873L186.149 326.514C192.924 333.075 202.157 336.804 211.815 336.881L216.22 336.916C236.332 337.076 252.764 321.673 252.922 302.512V302.512C253.018 290.912 247.022 280.031 236.944 273.516V273.516C225.606 266.185 216.19 256.466 209.428 245.112L199.282 228.077C192.196 216.18 178.992 208.782 164.638 208.668V208.668C150.518 208.555 137.376 215.509 130.016 226.986L118.352 245.176C111.467 255.912 102.166 265.056 91.1189 271.948L90.4782 272.347C80.2942 278.701 74.1196 289.485 74.0239 301.085V301.085C73.8659 320.246 90.0419 335.909 110.154 336.07L114.559 336.105C124.218 336.182 133.51 332.601 140.393 326.149V326.149Z" fill="#05B084" fill-opacity="0.2"/>
<ellipse cx="26.8244" cy="25.5559" rx="26.8244" ry="25.5559" transform="matrix(0.999968 0.00797569 -0.00824705 0.999966 55.9512 194.48)" fill="#05B084" fill-opacity="0.2"/>
<ellipse cx="26.8244" cy="25.5559" rx="26.8244" ry="25.5559" transform="matrix(0.999968 0.00797569 -0.00824705 0.999966 223.664 195.818)" fill="#05B084" fill-opacity="0.2"/>
<ellipse cx="26.8244" cy="25.5559" rx="26.8244" ry="25.5559" transform="matrix(0.999968 0.00797569 -0.00824705 0.999966 104.312 141.604)" fill="#05B084" fill-opacity="0.2"/>
<ellipse cx="26.8244" cy="25.5559" rx="26.8244" ry="25.5559" transform="matrix(0.999968 0.00797569 -0.00824705 0.999966 176.198 142.178)" fill="#05B084" fill-opacity="0.2"/>
<path d="M226.632 597.892C226.632 597.892 196.937 602.558 180.67 611.782C149.883 629.24 96.5738 669.996 128.388 685.03C156.059 698.107 180.038 671.519 175.753 649.449C170.801 623.95 124.04 650.188 97.7757 666.788C73.794 681.944 61.9219 702.442 61.9219 702.442" stroke="#05B084" stroke-width="6" stroke-linecap="round"/>
<path d="M563 814.036C563 814.036 572.587 786.009 592.5 786.009C612.413 786.009 622.587 814.036 642.5 814.036C662.413 814.036 672.587 786.009 692.5 786.009C712.413 786.009 722.587 814.036 742.5 814.036C762.413 814.036 759.5 786.009 792.5 786.009C825.5 786.009 853 803.71 853 803.71" stroke="#05B084" stroke-width="4" stroke-linecap="round"/>
<path fill-rule="evenodd" clip-rule="evenodd" d="M1309.96 703.677L1312.18 699.055C1315.14 692.883 1320.47 688.12 1327 685.814V685.814C1333.53 683.507 1340.72 683.847 1347 686.757L1351.7 688.937C1360.17 692.863 1369.87 693.321 1378.69 690.21L1382.7 688.791C1401.05 682.312 1410.58 662.432 1404 644.389V644.389C1400.01 633.466 1390.73 625.226 1379.28 622.43V622.43C1366.39 619.285 1354.41 613.263 1344.27 604.831L1329.06 592.181C1318.44 583.346 1303.83 580.752 1290.73 585.376V585.376C1277.85 589.925 1268.34 600.786 1265.68 613.989L1261.46 634.913C1258.97 647.263 1253.73 658.915 1246.1 669.028L1245.66 669.614C1238.63 678.937 1236.8 691.098 1240.79 702.021V702.021C1247.38 720.064 1267.6 729.439 1285.94 722.96L1289.96 721.541C1298.77 718.429 1305.97 712.003 1309.96 703.677V703.677Z" fill="#05B084" fill-opacity="0.2"/>
<ellipse cx="25.9511" cy="25.6183" rx="25.9511" ry="25.6183" transform="matrix(0.942934 -0.33298 0.342997 0.939337 1186.9 607.883)" fill="#05B084" fill-opacity="0.2"/>
<ellipse cx="25.9511" cy="25.6183" rx="25.9511" ry="25.6183" transform="matrix(0.942934 -0.33298 0.342997 0.939337 1339.9 553.855)" fill="#05B084" fill-opacity="0.2"/>
<ellipse cx="25.9511" cy="25.6183" rx="25.9511" ry="25.6183" transform="matrix(0.942934 -0.33298 0.342997 0.939337 1212.31 542.296)" fill="#05B084" fill-opacity="0.2"/>
<ellipse cx="25.9511" cy="25.6183" rx="25.9511" ry="25.6183" transform="matrix(0.942934 -0.33298 0.342997 0.939337 1277.89 519.137)" fill="#05B084" fill-opacity="0.2"/>
<path d="M125.873 1018.38C125.873 1018.38 199.195 952.076 219.528 968.87C239.862 985.665 186.719 1068.63 207.053 1085.43C227.387 1102.22 301.307 1036.41 321.641 1053.21C341.975 1070 288.832 1152.97 309.166 1169.77C329.499 1186.56 390.057 1109.72 423.754 1137.55C457.451 1165.38 445.406 1235.56 445.406 1235.56" stroke="#05B084" stroke-width="4" stroke-linecap="round"/>
<rect width="152.018" height="148.558" transform="matrix(0.962267 0.272108 -0.280649 0.95981 707.692 1029.89)" fill="#FAFFFD" fill-opacity="0.996078"/>
<path fill-rule="evenodd" clip-rule="evenodd" d="M737.341 1168.83L739.996 1167.4C743.542 1165.49 747.727 1165.04 751.629 1166.14V1166.14C755.532 1167.24 758.833 1169.81 760.806 1173.28L762.283 1175.88C764.945 1180.56 769.398 1184.03 774.663 1185.52L777.064 1186.2C788.028 1189.3 799.449 1183.15 802.573 1172.46V1172.46C804.465 1165.99 802.914 1159.01 798.441 1153.86V1153.86C793.408 1148.07 789.805 1141.23 787.911 1133.87L785.068 1122.83C783.083 1115.12 777.042 1109 769.217 1106.79V1106.79C761.52 1104.61 753.237 1106.53 747.396 1111.85L738.138 1120.27C732.674 1125.24 726.142 1128.96 719.013 1131.16L718.599 1131.28C712.027 1133.31 706.944 1138.42 705.052 1144.89V1144.89C701.927 1155.57 708.282 1166.75 719.245 1169.85L721.647 1170.53C726.912 1172.02 732.557 1171.41 737.341 1168.83V1168.83Z" fill="#05B084" fill-opacity="0.2"/>
<ellipse cx="15.1955" cy="14.8496" rx="15.1955" ry="14.8496" transform="matrix(0.962267 0.272108 -0.280649 0.95981 712.082 1082.59)" fill="#05B084" fill-opacity="0.2"/>
<ellipse cx="15.1955" cy="14.8496" rx="15.1955" ry="14.8496" transform="matrix(0.962267 0.272108 -0.280649 0.95981 803.506 1108.44)" fill="#05B084" fill-opacity="0.2"/>
<ellipse cx="15.1955" cy="14.8496" rx="15.1955" ry="14.8496" transform="matrix(0.962267 0.272108 -0.280649 0.95981 746.89 1060.27)" fill="#05B084" fill-opacity="0.2"/>
<ellipse cx="15.1955" cy="14.8496" rx="15.1955" ry="14.8496" transform="matrix(0.962267 0.272108 -0.280649 0.95981 786.078 1071.36)" fill="#05B084" fill-opacity="0.2"/>
<path d="M1322.44 1096.79C1322.44 1096.79 1301.55 1075.52 1284.54 1067.69C1252.36 1052.87 1187.85 1033.23 1193.54 1067.49C1198.49 1097.29 1234.38 1101.39 1250.33 1085.3C1268.75 1066.7 1220.09 1044.03 1191.22 1032.36C1164.85 1021.71 1140.96 1023.88 1140.96 1023.88" stroke="#05B084" stroke-width="6" stroke-linecap="round"/>
</svg>
